<?xml version="1.0" encoding="utf-8"?>
<!-- Generator: Adobe Illustrator 22.1.0, SVG Export Plug-In . SVG Version: 6.00 Build 0)  -->
<svg version="1.1" id="Layer_1" xmlns="http://www.w3.org/2000/svg" xmlns:xlink="http://www.w3.org/1999/xlink" x="0px" y="0px"
	 viewBox="0 0 232.8 41.5" style="enable-background:new 0 0 232.8 41.5;" xml:space="preserve">
<style type="text/css">
	.st0{fill:#5F6D85;}
	.st1{fill:#8ED0F4;}
	.st2{fill:#37B1FF;}
	.st3{fill:none;stroke:#8ED0F4;stroke-miterlimit:10;}
</style>
<g>
	<path class="st0" d="M46.2,32.5c-0.5-0.5-0.7-1.2-0.7-2V3.9c0-0.9,0.3-1.6,0.8-2.1S47.5,1,48.4,1c0.9,0,1.6,0.3,2.2,0.8
		c0.5,0.5,0.7,1.2,0.7,2.1v24.5h12.8c1.8,0,2.7,0.8,2.7,2.4c0,1.6-0.9,2.4-2.7,2.4H48.2C47.4,33.3,46.7,33,46.2,32.5z"/>
	<path class="st0" d="M70.5,5.7c-0.6-0.6-0.9-1.3-0.9-2.2s0.3-1.6,0.9-2.2c0.6-0.5,1.4-0.8,2.5-0.8c1,0,1.8,0.3,2.4,0.8
		s0.9,1.3,0.9,2.2S76,5.1,75.4,5.7S74,6.5,72.9,6.5C72,6.5,71.2,6.3,70.5,5.7z M71,32.8c-0.5-0.5-0.8-1.1-0.8-2V13.3
		c0-0.9,0.3-1.5,0.8-2s1.2-0.7,2-0.7s1.5,0.2,2,0.7s0.8,1.1,0.8,2v17.5c0,0.9-0.3,1.6-0.8,2c-0.5,0.5-1.2,0.7-2,0.7
		S71.5,33.3,71,32.8z"/>
	<path class="st0" d="M99.6,11.9c1.5,0.9,2.6,2.3,3.5,4c0.8,1.7,1.2,3.7,1.2,6s-0.4,4.3-1.2,6.1c-0.8,1.8-2,3.1-3.5,4.1
		c-1.5,1-3.2,1.5-5.1,1.5c-1.6,0-3-0.3-4.3-1s-2.2-1.7-2.9-2.9v1.1c0,0.8-0.3,1.5-0.8,2s-1.2,0.7-2,0.7s-1.5-0.2-2-0.7
		s-0.8-1.1-0.8-2V3.6c0-0.8,0.3-1.4,0.8-1.9S83.7,1,84.6,1s1.5,0.2,2,0.7s0.8,1.1,0.8,1.9v10.7c0.7-1.2,1.6-2.1,2.9-2.8
		c1.2-0.7,2.7-1,4.2-1C96.4,10.5,98.2,11,99.6,11.9z M97.2,27.3c1-1.3,1.5-3.1,1.5-5.4s-0.5-4-1.5-5.2s-2.4-1.8-4.2-1.8
		c-1.8,0-3.2,0.6-4.2,1.8c-1,1.2-1.5,3-1.5,5.3s0.5,4.1,1.5,5.3s2.4,1.9,4.2,1.9C94.8,29.2,96.2,28.6,97.2,27.3z"/>
	<path class="st0" d="M127.9,27.8c0.3,0.4,0.5,0.9,0.5,1.6c0,0.9-0.6,1.7-1.7,2.4c-1,0.6-2.2,1-3.5,1.4c-1.3,0.3-2.5,0.5-3.7,0.5
		c-3.6,0-6.4-1-8.5-3.1s-3.1-4.9-3.1-8.5c0-2.3,0.5-4.3,1.4-6s2.2-3.1,3.8-4.1c1.7-1,3.5-1.5,5.6-1.5c2,0,3.7,0.4,5.2,1.3
		c1.5,0.9,2.6,2.1,3.5,3.7c0.8,1.6,1.2,3.5,1.2,5.7c0,1.3-0.6,2-1.7,2h-13.4c0.2,2.1,0.8,3.6,1.8,4.6s2.5,1.5,4.4,1.5
		c1,0,1.8-0.1,2.6-0.4c0.7-0.2,1.6-0.6,2.5-1c0.9-0.5,1.6-0.7,2-0.7C127.2,27.2,127.6,27.4,127.9,27.8z M115.1,15.9
		c-0.9,1-1.5,2.4-1.7,4.2h10.3c-0.1-1.8-0.5-3.2-1.4-4.2s-2-1.4-3.5-1.4C117.2,14.5,116,15,115.1,15.9z"/>
	<path class="st0" d="M147.5,11.1c0.5,0.4,0.7,1,0.7,1.8s-0.2,1.4-0.6,1.8c-0.4,0.4-1.1,0.7-2.1,0.8l-1.4,0.1
		c-1.8,0.2-3.1,0.8-3.9,1.8c-0.8,1-1.2,2.3-1.2,3.9v9.5c0,0.9-0.3,1.6-0.8,2c-0.5,0.5-1.2,0.7-2,0.7s-1.5-0.2-2-0.7s-0.8-1.1-0.8-2
		V13.2c0-0.8,0.3-1.5,0.8-2s1.2-0.7,2-0.7s1.4,0.2,1.9,0.7c0.5,0.4,0.7,1.1,0.7,1.9v1.8c0.6-1.3,1.4-2.4,2.6-3.1
		c1.1-0.7,2.4-1.1,3.8-1.2h0.6C146.4,10.5,147,10.7,147.5,11.1z"/>
	<path class="st0" d="M166.4,31.4c0,0.7-0.3,1.3-0.9,1.7c-0.6,0.4-1.4,0.5-2.5,0.5l-1.2-0.1c-5.1-0.4-7.6-3.1-7.6-8.2v-9.9h-2.3
		c-0.8,0-1.4-0.2-1.9-0.5c-0.4-0.4-0.7-0.9-0.7-1.6c0-0.7,0.2-1.2,0.7-1.6c0.4-0.4,1.1-0.5,1.9-0.5h2.3V6.9c0-0.8,0.3-1.5,0.8-2
		s1.2-0.7,2.1-0.7c0.8,0,1.5,0.2,2,0.7s0.8,1.1,0.8,2v4.2h3.9c0.8,0,1.4,0.2,1.9,0.5c0.4,0.4,0.7,0.9,0.7,1.6c0,0.7-0.2,1.2-0.7,1.6
		c-0.4,0.4-1.1,0.5-1.9,0.5h-3.9v10.3c0,2.2,1,3.4,3.1,3.6l1.2,0.1C165.7,29.4,166.4,30.1,166.4,31.4z"/>
	<path class="st0" d="M186.2,11c0.4-0.3,0.9-0.4,1.3-0.4c0.7,0,1.3,0.2,1.9,0.7c0.6,0.5,0.8,1.1,0.8,1.7c0,0.3-0.1,0.7-0.3,1
		l-12.4,26c-0.5,1-1.3,1.5-2.4,1.5c-0.7,0-1.3-0.2-1.8-0.7s-0.8-1-0.8-1.7c0-0.3,0.1-0.7,0.3-1.1l3.1-6.5l-8.5-17.6
		c-0.2-0.3-0.2-0.7-0.2-1c0-0.7,0.3-1.3,0.9-1.8c0.6-0.5,1.3-0.7,2-0.7c0.5,0,1,0.1,1.4,0.4c0.4,0.3,0.8,0.7,1,1.2l6.4,14l6.3-14
		C185.5,11.7,185.8,11.3,186.2,11z"/>
</g>
<g>
	<g>
		<path class="st1" d="M8.1,21.3c0-1,0.4-2.1,1.2-2.8l9.2-9.2c1.1-1.1,2.8-1.5,4.4-0.8c1.5,0.6,2.5,2.1,2.5,3.7v9.2c0,2.2-1.8,4-4,4
			h-9.2c-1.6,0-3.1-0.9-3.7-2.5C8.2,22.2,8.1,21.7,8.1,21.3z"/>
	</g>
	<g>
		<path class="st2" d="M8.1,12.1c0-1,0.4-2,1.2-2.8c1.6-1.6,4.2-1.6,5.6,0l9.2,9.2c1.6,1.6,1.6,4.2,0,5.6c-1.6,1.6-4.2,1.6-5.6,0
			l-9.3-9.2C8.5,14.1,8.1,13.2,8.1,12.1z"/>
	</g>
</g>
<path class="st1" d="M200.6,30.7c-2.1-2-3.1-5-3.1-8.9V7c0-0.7,0.2-1.4,0.7-1.9c0.5-0.5,1.1-0.7,1.9-0.7c0.7,0,1.4,0.2,1.9,0.7
	s0.7,1.1,0.7,1.9v15c0,2.5,0.6,4.3,1.7,5.6c1.2,1.2,2.9,1.9,5.2,1.9s3.9-0.7,5.1-1.9c1.2-1.2,1.7-3.2,1.7-5.6V7
	c0-0.7,0.2-1.4,0.7-1.9c0.5-0.5,1.1-0.7,1.9-0.7c0.8,0,1.4,0.2,1.9,0.7s0.7,1.1,0.7,1.9v14.7c0,3.9-1,6.8-3.1,8.9
	c-2.1,2.1-5,3.1-8.9,3.1C205.6,33.7,202.6,32.7,200.6,30.7z"/>
<path class="st1" d="M228.2,32.8c-0.5-0.5-0.7-1.2-0.7-1.9V7c0-0.7,0.2-1.4,0.7-1.9c0.5-0.5,1.1-0.7,1.9-0.7c0.8,0,1.5,0.2,1.9,0.7
	c0.5,0.5,0.7,1.1,0.7,1.9v23.9c0,0.7-0.2,1.4-0.7,1.9c-0.5,0.5-1.1,0.7-1.9,0.7C229.4,33.6,228.7,33.3,228.2,32.8z"/>
<path class="st3" d="M29,33H4.5c-2.2,0-4-1.8-4-4V4.5c0-2.2,1.8-4,4-4H29c2.2,0,4,1.8,4,4V29C33,31.2,31.2,33,29,33z"/>
</svg>
